<mxfile host="app.diagrams.net" modified="2024-04-17T09:59:13.875Z" agent="Mozilla/5.0 (Windows NT 10.0; Win64; x64) AppleWebKit/537.36 (KHTML, like Gecko) Chrome/123.0.0.0 Safari/537.36" version="24.2.5" etag="ByhyrHOmxNCHV-yph2ph" type="github">
  <diagram name="第 1 页" id="Dau7rd6t1JSJyT7rKach">
    <mxGraphModel>
      <root>
        <mxCell id="0" />
        <mxCell id="1" parent="0" />
      </root>
    </mxGraphModel>
  </diagram>
</mxfile>
